<svg width="512" height="512" viewBox="0 0 512 512" xmlns="http://www.w3.org/2000/svg">
  <defs>
    <linearGradient id="bg" x1="0%" y1="0%" x2="100%" y2="100%">
      <stop offset="0%" style="stop-color:#3b82f6;stop-opacity:1" />
      <stop offset="100%" style="stop-color:#2563eb;stop-opacity:1" />
    </linearGradient>
    <linearGradient id="orange" x1="0%" y1="0%" x2="100%" y2="100%">
      <stop offset="0%" style="stop-color:#f97316;stop-opacity:1" />
      <stop offset="100%" style="stop-color:#ea580c;stop-opacity:1" />
    </linearGradient>
  </defs>

  <!-- Background rounded rectangle -->
  <rect x="32" y="64" width="448" height="384" rx="24" fill="#1e293b" />
  
  <!-- Terminal window header bar -->
  <path d="M 56 64 L 456 64 Q 480 64 480 88 L 480 112 Q 480 112 456 112 L 56 112 Q 32 112 32 88 L 32 88 Q 32 64 56 64 Z" fill="#334155" />

  <!-- Window buttons -->
  <circle cx="72" cy="88" r="12" fill="#ef4444" />
  <circle cx="120" cy="88" r="12" fill="#f59e0b" />
  <circle cx="168" cy="88" r="12" fill="#22c55e" />

  <!-- Terminal prompt character (orange) -->
  <path d="M 88 180 L 144 224 L 88 268" stroke="url(#orange)" stroke-width="20" fill="none" stroke-linecap="round" stroke-linejoin="round" />

  <!-- pvetui text (orange pve, white tui, monospace, on same line as prompt) -->
  <text x="176" y="242" font-family="monospace" font-size="56" font-weight="bold">
    <tspan fill="#f97316">pve</tspan><tspan fill="#ffffff">tui</tspan>
  </text>

  <!-- Terminal line (gray) -->
  <line x1="88" y1="328" x2="400" y2="328" stroke="#64748b" stroke-width="16" stroke-linecap="round" />
  <line x1="88" y1="376" x2="320" y2="376" stroke="#64748b" stroke-width="16" stroke-linecap="round" />
</svg>
